<?xml version="1.0" encoding="UTF-8" standalone="no"?>
<!DOCTYPE svg PUBLIC "-//W3C//DTD SVG 1.1//EN" "http://www.w3.org/Graphics/SVG/1.1/DTD/svg11.dtd">
<svg class="railroad-diagram" width="642" height="62" viewBox="0 0 642 62" id="allocaExpr" xmlns="http://www.w3.org/2000/svg" xmlns:xlink="http://www.w3.org/1999/xlink"><g transform="translate(.5 .5)"><g><path d="M20 21v20m0 -10h20"></path></g><g><path d="M40 31h0"></path><path d="M602 31h0"></path><path d="M40 31h20"></path><g><path d="M60 31h0"></path><g><path d="M60 31h10"></path><path d="M572 31h10"></path><g class="terminal "><path d="M70 31h0"></path><path d="M158 31h0"></path><rect x="70" y="20" width="88" height="22"></rect><text x="114" y="35">'alloca'</text></g><path d="M158 31h10"></path><path d="M168 31h10"></path><g class="non-terminal "><path d="M178 31h0"></path><path d="M232 31h0"></path><rect x="178" y="20" width="54" height="22" rx="10" ry="10"></rect><text x="205" y="35">type</text></g><path d="M232 31h10"></path><path d="M242 31h10"></path><g class="terminal "><path d="M252 31h0"></path><path d="M297.5 31h0"></path><rect x="252" y="20" width="45.5" height="22"></rect><text x="274.75" y="35">'['</text></g><path d="M297.5 31h10"></path><path d="M307.5 31h10"></path><g class="non-terminal "><path d="M317.5 31h0"></path><path d="M371.5 31h0"></path><rect x="317.5" y="20" width="54" height="22" rx="10" ry="10"></rect><text x="344.5" y="35">expr</text></g><path d="M371.5 31h10"></path><path d="M381.5 31h10"></path><g class="terminal "><path d="M391.5 31h0"></path><path d="M437 31h0"></path><rect x="391.5" y="20" width="45.5" height="22"></rect><text x="414.25" y="35">']'</text></g><path d="M437 31h10"></path><path d="M447 31h10"></path><g class="comment "><path d="M457 31h0"></path><path d="M572 31h0"></path><text x="514.5" y="36" class="comment">{ action code }</text></g></g><path d="M582 31h0"></path></g><path d="M582 31h20"></path></g><path d="M 602 31 h 20 m 0 -10 v 20"></path></g><defs><style type="text/css"><![CDATA[
svg.railroad-diagram path { stroke-width: 2; stroke: darkgray; fill: rgba(0, 0, 0, 0);}/* All text except comments. */svg.railroad-diagram text { font: bold 12px Hack, "Source Code Pro", monospace; text-anchor: middle; fill: #404040;}/* Comment text */svg.railroad-diagram text.comment { font: italic 10px Hack, "Source Code Pro", monospace; fill: #404040;}/* The terminal boxes. */svg.railroad-diagram g.terminal rect { stroke-width: 2; stroke: #404040; fill: rgba(200, 200, 200, 1);}svg.railroad-diagram g.non-terminal rect { /* The non-terminal boxes. */ stroke-width: 2; stroke: #404040; fill: rgba(255, 255, 255, 1);}/* Multiple choice text, not working atm. */svg.railroad-diagram text.diagram-text { font-size: 12px Hack, "Source Code Pro", monospace; fill: red;}/* Multiple choice text, not working atm. */svg.railroad-diagram path.diagram-text { stroke-width: 1; stroke: red; fill: red; cursor: help;}
 ]]>
</style></defs></svg>