<?xml version="1.0" encoding="UTF-8" standalone="no"?>
<!DOCTYPE svg PUBLIC "-//W3C//DTD SVG 1.1//EN" "http://www.w3.org/Graphics/SVG/1.1/DTD/svg11.dtd">
<svg class="railroad-diagram" width="1456" height="484" viewBox="0 0 1456 484" id="atomExpr" xmlns="http://www.w3.org/2000/svg" xmlns:xlink="http://www.w3.org/1999/xlink"><g transform="translate(.5 .5)"><g><path d="M20 21v20m0 -10h20"></path></g><g><path d="M40 31h0"></path><path d="M1416 31h0"></path><path d="M40 31h20"></path><g><path d="M60 31h542.25"></path><g><path d="M602.25 31h10"></path><path d="M843.75 31h10"></path><g class="non-terminal "><path d="M612.25 31h0"></path><path d="M708.75 31h0"></path><rect x="612.25" y="20" width="96.5" height="22" rx="10" ry="10"></rect><text x="660.5" y="35">letInExpr</text></g><path d="M708.75 31h10"></path><path d="M718.75 31h10"></path><g class="comment "><path d="M728.75 31h0"></path><path d="M843.75 31h0"></path><text x="786.25" y="36" class="comment">{ action code }</text></g></g><path d="M853.75 31h542.25"></path></g><path d="M1396 31h20"></path><path d="M40 31a10 10 0 0 1 10 10v18a10 10 0 0 0 10 10"></path><g><path d="M60 69h555"></path><g><path d="M615 69h10"></path><path d="M831 69h10"></path><g class="non-terminal "><path d="M625 69h0"></path><path d="M696 69h0"></path><rect x="625" y="58" width="71" height="22" rx="10" ry="10"></rect><text x="660.5" y="73">ifExpr</text></g><path d="M696 69h10"></path><path d="M706 69h10"></path><g class="comment "><path d="M716 69h0"></path><path d="M831 69h0"></path><text x="773.5" y="74" class="comment">{ action code }</text></g></g><path d="M841 69h555"></path></g><path d="M1396 69a10 10 0 0 0 10 -10v-18a10 10 0 0 1 10 -10"></path><path d="M40 31a10 10 0 0 1 10 10v56a10 10 0 0 0 10 10"></path><g><path d="M60 107h538"></path><g><path d="M598 107h10"></path><path d="M848 107h10"></path><g class="non-terminal "><path d="M608 107h0"></path><path d="M713 107h0"></path><rect x="608" y="96" width="105" height="22" rx="10" ry="10"></rect><text x="660.5" y="111">allocaExpr</text></g><path d="M713 107h10"></path><path d="M723 107h10"></path><g class="comment "><path d="M733 107h0"></path><path d="M848 107h0"></path><text x="790.5" y="112" class="comment">{ action code }</text></g></g><path d="M858 107h538"></path></g><path d="M1396 107a10 10 0 0 0 10 -10v-56a10 10 0 0 1 10 -10"></path><path d="M40 31a10 10 0 0 1 10 10v126a10 10 0 0 0 10 10"></path><g><path d="M60 177h0"></path><g><path d="M60 177h10"></path><path d="M1386 177h10"></path><g class="non-terminal "><path d="M70 177h0"></path><path d="M158 177h0"></path><rect x="70" y="166" width="88" height="22" rx="10" ry="10"></rect><text x="114" y="181">atomExpr</text></g><path d="M158 177h10"></path><path d="M168 177h10"></path><g class="comment "><path d="M178 177h0"></path><path d="M293 177h0"></path><text x="235.5" y="182" class="comment">{ action code }</text></g><path d="M293 177h10"></path><path d="M303 177h10"></path><g class="terminal "><path d="M313 177h0"></path><path d="M358.5 177h0"></path><rect x="313" y="166" width="45.5" height="22"></rect><text x="335.75" y="181">'('</text></g><path d="M358.5 177h10"></path><g><path d="M368.5 177h0"></path><path d="M1195.5 177h0"></path><path d="M368.5 177a10 10 0 0 0 10 -10v-23a10 10 0 0 1 10 -10"></path><g><path d="M388.5 134h787"></path></g><path d="M1175.5 134a10 10 0 0 1 10 10v23a10 10 0 0 0 10 10"></path><path d="M368.5 177h20"></path><g><path d="M388.5 177h0"></path><path d="M1175.5 177h0"></path><path d="M388.5 177h20"></path><g><path d="M408.5 177h0"></path><g><path d="M408.5 177h10"></path><path d="M1145.5 177h10"></path><g class="non-terminal "><path d="M418.5 177h0"></path><path d="M506.5 177h0"></path><rect x="418.5" y="166" width="88" height="22" rx="10" ry="10"></rect><text x="462.5" y="181">atomExpr</text></g><path d="M506.5 177h10"></path><path d="M516.5 177h10"></path><g class="comment "><path d="M526.5 177h0"></path><path d="M641.5 177h0"></path><text x="584" y="182" class="comment">{ action code }</text></g><path d="M641.5 177h10"></path><g><path d="M651.5 177h0"></path><path d="M1060 177h0"></path><path d="M651.5 177a10 10 0 0 0 10 -10v-7a10 10 0 0 1 10 -10"></path><g><path d="M671.5 150h368.5"></path></g><path d="M1040 150a10 10 0 0 1 10 10v7a10 10 0 0 0 10 10"></path><path d="M651.5 177h20"></path><g><path d="M671.5 177h0"></path><path d="M1040 177h0"></path><path d="M671.5 177h10"></path><g><path d="M681.5 177h0"></path><path d="M1030 177h0"></path><path d="M681.5 177h20"></path><g><path d="M701.5 177h0"></path><g><path d="M701.5 177h10"></path><path d="M1000 177h10"></path><g class="terminal "><path d="M711.5 177h0"></path><path d="M757 177h0"></path><rect x="711.5" y="166" width="45.5" height="22"></rect><text x="734.25" y="181">','</text></g><path d="M757 177h10"></path><path d="M767 177h10"></path><g class="non-terminal "><path d="M777 177h0"></path><path d="M865 177h0"></path><rect x="777" y="166" width="88" height="22" rx="10" ry="10"></rect><text x="821" y="181">atomExpr</text></g><path d="M865 177h10"></path><path d="M875 177h10"></path><g class="comment "><path d="M885 177h0"></path><path d="M1000 177h0"></path><text x="942.5" y="182" class="comment">{ action code }</text></g></g><path d="M1010 177h0"></path></g><path d="M1010 177h20"></path></g><path d="M1030 177h10"></path><path d="M681.5 177a10 10 0 0 0 -10 10v7a10 10 0 0 0 10 10"></path><g><path d="M681.5 204h348.5"></path></g><path d="M1030 204a10 10 0 0 0 10 -10v-7a10 10 0 0 0 -10 -10"></path></g><path d="M1040 177h20"></path></g><g><path d="M1060 177h0"></path><path d="M1145.5 177h0"></path><path d="M1060 177a10 10 0 0 0 10 -10v-7a10 10 0 0 1 10 -10"></path><g><path d="M1080 150h45.5"></path></g><path d="M1125.5 150a10 10 0 0 1 10 10v7a10 10 0 0 0 10 10"></path><path d="M1060 177h20"></path><g class="terminal "><path d="M1080 177h0"></path><path d="M1125.5 177h0"></path><rect x="1080" y="166" width="45.5" height="22"></rect><text x="1102.75" y="181">','</text></g><path d="M1125.5 177h20"></path></g></g><path d="M1155.5 177h0"></path></g><path d="M1155.5 177h20"></path></g><path d="M1175.5 177h20"></path></g><path d="M1195.5 177h10"></path><g class="terminal "><path d="M1205.5 177h0"></path><path d="M1251 177h0"></path><rect x="1205.5" y="166" width="45.5" height="22"></rect><text x="1228.25" y="181">')'</text></g><path d="M1251 177h10"></path><path d="M1261 177h10"></path><g class="comment "><path d="M1271 177h0"></path><path d="M1386 177h0"></path><text x="1328.5" y="182" class="comment">{ action code }</text></g></g><path d="M1396 177h0"></path></g><path d="M1396 177a10 10 0 0 0 10 -10v-126a10 10 0 0 1 10 -10"></path><path d="M40 31a10 10 0 0 1 10 10v180a10 10 0 0 0 10 10"></path><g><path d="M60 231h535"></path><g><path d="M595 231h10"></path><path d="M851 231h10"></path><g class="terminal "><path d="M605 231h0"></path><path d="M650.5 231h0"></path><rect x="605" y="220" width="45.5" height="22"></rect><text x="627.75" y="235">'('</text></g><path d="M650.5 231h10"></path><path d="M660.5 231h10"></path><g class="terminal "><path d="M670.5 231h0"></path><path d="M716 231h0"></path><rect x="670.5" y="220" width="45.5" height="22"></rect><text x="693.25" y="235">')'</text></g><path d="M716 231h10"></path><path d="M726 231h10"></path><g class="comment "><path d="M736 231h0"></path><path d="M851 231h0"></path><text x="793.5" y="236" class="comment">{ action code }</text></g></g><path d="M861 231h535"></path></g><path d="M1396 231a10 10 0 0 0 10 -10v-180a10 10 0 0 1 10 -10"></path><path d="M40 31a10 10 0 0 1 10 10v218a10 10 0 0 0 10 10"></path><g><path d="M60 269h498"></path><g><path d="M558 269h10"></path><path d="M888 269h10"></path><g class="terminal "><path d="M568 269h0"></path><path d="M613.5 269h0"></path><rect x="568" y="258" width="45.5" height="22"></rect><text x="590.75" y="273">'('</text></g><path d="M613.5 269h10"></path><path d="M623.5 269h10"></path><g class="non-terminal "><path d="M633.5 269h0"></path><path d="M687.5 269h0"></path><rect x="633.5" y="258" width="54" height="22" rx="10" ry="10"></rect><text x="660.5" y="273">expr</text></g><path d="M687.5 269h10"></path><path d="M697.5 269h10"></path><g class="terminal "><path d="M707.5 269h0"></path><path d="M753 269h0"></path><rect x="707.5" y="258" width="45.5" height="22"></rect><text x="730.25" y="273">')'</text></g><path d="M753 269h10"></path><path d="M763 269h10"></path><g class="comment "><path d="M773 269h0"></path><path d="M888 269h0"></path><text x="830.5" y="274" class="comment">{ action code }</text></g></g><path d="M898 269h498"></path></g><path d="M1396 269a10 10 0 0 0 10 -10v-218a10 10 0 0 1 10 -10"></path><path d="M40 31a10 10 0 0 1 10 10v256a10 10 0 0 0 10 10"></path><g><path d="M60 307h448.25"></path><g><path d="M508.25 307h10"></path><path d="M937.75 307h10"></path><g class="terminal "><path d="M518.25 307h0"></path><path d="M563.75 307h0"></path><rect x="518.25" y="296" width="45.5" height="22"></rect><text x="541" y="311">'('</text></g><path d="M563.75 307h10"></path><path d="M573.75 307h10"></path><g class="non-terminal "><path d="M583.75 307h0"></path><path d="M671.75 307h0"></path><rect x="583.75" y="296" width="88" height="22" rx="10" ry="10"></rect><text x="627.75" y="311">atomExpr</text></g><path d="M671.75 307h10"></path><path d="M681.75 307h10"></path><g class="terminal "><path d="M691.75 307h0"></path><path d="M737.25 307h0"></path><rect x="691.75" y="296" width="45.5" height="22"></rect><text x="714.5" y="311">','</text></g><path d="M737.25 307h10"></path><path d="M747.25 307h10"></path><g class="terminal "><path d="M757.25 307h0"></path><path d="M802.75 307h0"></path><rect x="757.25" y="296" width="45.5" height="22"></rect><text x="780" y="311">')'</text></g><path d="M802.75 307h10"></path><path d="M812.75 307h10"></path><g class="comment "><path d="M822.75 307h0"></path><path d="M937.75 307h0"></path><text x="880.25" y="312" class="comment">{ action code }</text></g></g><path d="M947.75 307h448.25"></path></g><path d="M1396 307a10 10 0 0 0 10 -10v-256a10 10 0 0 1 10 -10"></path><path d="M40 31a10 10 0 0 1 10 10v310a10 10 0 0 0 10 10"></path><g><path d="M60 361h176.5"></path><g><path d="M236.5 361h10"></path><path d="M1209.5 361h10"></path><g class="terminal "><path d="M246.5 361h0"></path><path d="M292 361h0"></path><rect x="246.5" y="350" width="45.5" height="22"></rect><text x="269.25" y="365">'('</text></g><path d="M292 361h10"></path><path d="M302 361h10"></path><g class="non-terminal "><path d="M312 361h0"></path><path d="M400 361h0"></path><rect x="312" y="350" width="88" height="22" rx="10" ry="10"></rect><text x="356" y="365">atomExpr</text></g><path d="M400 361h10"></path><path d="M410 361h10"></path><g class="comment "><path d="M420 361h0"></path><path d="M535 361h0"></path><text x="477.5" y="366" class="comment">{ action code }</text></g><path d="M535 361h10"></path><path d="M545 361h10"></path><g><path d="M555 361h0"></path><path d="M923.5 361h0"></path><path d="M555 361h10"></path><g><path d="M565 361h0"></path><path d="M913.5 361h0"></path><path d="M565 361h20"></path><g><path d="M585 361h0"></path><g><path d="M585 361h10"></path><path d="M883.5 361h10"></path><g class="terminal "><path d="M595 361h0"></path><path d="M640.5 361h0"></path><rect x="595" y="350" width="45.5" height="22"></rect><text x="617.75" y="365">','</text></g><path d="M640.5 361h10"></path><path d="M650.5 361h10"></path><g class="non-terminal "><path d="M660.5 361h0"></path><path d="M748.5 361h0"></path><rect x="660.5" y="350" width="88" height="22" rx="10" ry="10"></rect><text x="704.5" y="365">atomExpr</text></g><path d="M748.5 361h10"></path><path d="M758.5 361h10"></path><g class="comment "><path d="M768.5 361h0"></path><path d="M883.5 361h0"></path><text x="826" y="366" class="comment">{ action code }</text></g></g><path d="M893.5 361h0"></path></g><path d="M893.5 361h20"></path></g><path d="M913.5 361h10"></path><path d="M565 361a10 10 0 0 0 -10 10v7a10 10 0 0 0 10 10"></path><g><path d="M565 388h348.5"></path></g><path d="M913.5 388a10 10 0 0 0 10 -10v-7a10 10 0 0 0 -10 -10"></path></g><path d="M923.5 361h10"></path><g><path d="M933.5 361h0"></path><path d="M1019 361h0"></path><path d="M933.5 361a10 10 0 0 0 10 -10v-7a10 10 0 0 1 10 -10"></path><g><path d="M953.5 334h45.5"></path></g><path d="M999 334a10 10 0 0 1 10 10v7a10 10 0 0 0 10 10"></path><path d="M933.5 361h20"></path><g class="terminal "><path d="M953.5 361h0"></path><path d="M999 361h0"></path><rect x="953.5" y="350" width="45.5" height="22"></rect><text x="976.25" y="365">','</text></g><path d="M999 361h20"></path></g><path d="M1019 361h10"></path><g class="terminal "><path d="M1029 361h0"></path><path d="M1074.5 361h0"></path><rect x="1029" y="350" width="45.5" height="22"></rect><text x="1051.75" y="365">')'</text></g><path d="M1074.5 361h10"></path><path d="M1084.5 361h10"></path><g class="comment "><path d="M1094.5 361h0"></path><path d="M1209.5 361h0"></path><text x="1152" y="366" class="comment">{ action code }</text></g></g><path d="M1219.5 361h176.5"></path></g><path d="M1396 361a10 10 0 0 0 10 -10v-310a10 10 0 0 1 10 -10"></path><path d="M40 31a10 10 0 0 1 10 10v364a10 10 0 0 0 10 10"></path><g><path d="M60 415h559.25"></path><g><path d="M619.25 415h10"></path><path d="M826.75 415h10"></path><g class="terminal "><path d="M629.25 415h0"></path><path d="M691.75 415h0"></path><rect x="629.25" y="404" width="62.5" height="22"></rect><text x="660.5" y="419">IDENT</text></g><path d="M691.75 415h10"></path><path d="M701.75 415h10"></path><g class="comment "><path d="M711.75 415h0"></path><path d="M826.75 415h0"></path><text x="769.25" y="420" class="comment">{ action code }</text></g></g><path d="M836.75 415h559.25"></path></g><path d="M1396 415a10 10 0 0 0 10 -10v-364a10 10 0 0 1 10 -10"></path><path d="M40 31a10 10 0 0 1 10 10v402a10 10 0 0 0 10 10"></path><g><path d="M60 453h550.75"></path><g><path d="M610.75 453h10"></path><path d="M835.25 453h10"></path><g class="non-terminal "><path d="M620.75 453h0"></path><path d="M700.25 453h0"></path><rect x="620.75" y="442" width="79.5" height="22" rx="10" ry="10"></rect><text x="660.5" y="457">literal</text></g><path d="M700.25 453h10"></path><path d="M710.25 453h10"></path><g class="comment "><path d="M720.25 453h0"></path><path d="M835.25 453h0"></path><text x="777.75" y="458" class="comment">{ action code }</text></g></g><path d="M845.25 453h550.75"></path></g><path d="M1396 453a10 10 0 0 0 10 -10v-402a10 10 0 0 1 10 -10"></path></g><path d="M 1416 31 h 20 m 0 -10 v 20"></path></g><defs><style type="text/css"><![CDATA[
svg.railroad-diagram path { stroke-width: 2; stroke: darkgray; fill: rgba(0, 0, 0, 0);}/* All text except comments. */svg.railroad-diagram text { font: bold 12px Hack, "Source Code Pro", monospace; text-anchor: middle; fill: #404040;}/* Comment text */svg.railroad-diagram text.comment { font: italic 10px Hack, "Source Code Pro", monospace; fill: #404040;}/* The terminal boxes. */svg.railroad-diagram g.terminal rect { stroke-width: 2; stroke: #404040; fill: rgba(200, 200, 200, 1);}svg.railroad-diagram g.non-terminal rect { /* The non-terminal boxes. */ stroke-width: 2; stroke: #404040; fill: rgba(255, 255, 255, 1);}/* Multiple choice text, not working atm. */svg.railroad-diagram text.diagram-text { font-size: 12px Hack, "Source Code Pro", monospace; fill: red;}/* Multiple choice text, not working atm. */svg.railroad-diagram path.diagram-text { stroke-width: 1; stroke: red; fill: red; cursor: help;}
 ]]>
</style></defs></svg>