<?xml version="1.0" encoding="UTF-8" standalone="no"?>
<!DOCTYPE svg PUBLIC "-//W3C//DTD SVG 1.1//EN" "http://www.w3.org/Graphics/SVG/1.1/DTD/svg11.dtd">
<svg class="railroad-diagram" width="1052" height="94" viewBox="0 0 1052 94" id="expr" xmlns="http://www.w3.org/2000/svg" xmlns:xlink="http://www.w3.org/1999/xlink"><g transform="translate(.5 .5)"><g><path d="M20 37v20m0 -10h20"></path></g><g><path d="M40 47h0"></path><path d="M1012 47h0"></path><path d="M40 47h20"></path><g><path d="M60 47h0"></path><g><path d="M60 47h10"></path><path d="M982 47h10"></path><g class="non-terminal "><path d="M70 47h0"></path><path d="M158 47h0"></path><rect x="70" y="36" width="88" height="22" rx="10" ry="10"></rect><text x="114" y="51">atomExpr</text></g><path d="M158 47h10"></path><path d="M168 47h10"></path><g class="comment "><path d="M178 47h0"></path><path d="M293 47h0"></path><text x="235.5" y="52" class="comment">{ action code }</text></g><path d="M293 47h10"></path><g><path d="M303 47h0"></path><path d="M711.5 47h0"></path><path d="M303 47a10 10 0 0 0 10 -10v-7a10 10 0 0 1 10 -10"></path><g><path d="M323 20h368.5"></path></g><path d="M691.5 20a10 10 0 0 1 10 10v7a10 10 0 0 0 10 10"></path><path d="M303 47h20"></path><g><path d="M323 47h0"></path><path d="M691.5 47h0"></path><path d="M323 47h10"></path><g><path d="M333 47h0"></path><path d="M681.5 47h0"></path><path d="M333 47h20"></path><g><path d="M353 47h0"></path><g><path d="M353 47h10"></path><path d="M651.5 47h10"></path><g class="terminal "><path d="M363 47h0"></path><path d="M408.5 47h0"></path><rect x="363" y="36" width="45.5" height="22"></rect><text x="385.75" y="51">';'</text></g><path d="M408.5 47h10"></path><path d="M418.5 47h10"></path><g class="non-terminal "><path d="M428.5 47h0"></path><path d="M516.5 47h0"></path><rect x="428.5" y="36" width="88" height="22" rx="10" ry="10"></rect><text x="472.5" y="51">atomExpr</text></g><path d="M516.5 47h10"></path><path d="M526.5 47h10"></path><g class="comment "><path d="M536.5 47h0"></path><path d="M651.5 47h0"></path><text x="594" y="52" class="comment">{ action code }</text></g></g><path d="M661.5 47h0"></path></g><path d="M661.5 47h20"></path></g><path d="M681.5 47h10"></path><path d="M333 47a10 10 0 0 0 -10 10v7a10 10 0 0 0 10 10"></path><g><path d="M333 74h348.5"></path></g><path d="M681.5 74a10 10 0 0 0 10 -10v-7a10 10 0 0 0 -10 -10"></path></g><path d="M691.5 47h20"></path></g><g><path d="M711.5 47h0"></path><path d="M857 47h0"></path><path d="M711.5 47a10 10 0 0 0 10 -10v-7a10 10 0 0 1 10 -10"></path><g><path d="M731.5 20h105.5"></path></g><path d="M837 20a10 10 0 0 1 10 10v7a10 10 0 0 0 10 10"></path><path d="M711.5 47h20"></path><g><path d="M731.5 47h0"></path><path d="M837 47h0"></path><path d="M731.5 47h20"></path><g><path d="M751.5 47h0"></path><g><path d="M751.5 47h10"></path><path d="M807 47h10"></path><g class="terminal "><path d="M761.5 47h0"></path><path d="M807 47h0"></path><rect x="761.5" y="36" width="45.5" height="22"></rect><text x="784.25" y="51">';'</text></g></g><path d="M817 47h0"></path></g><path d="M817 47h20"></path></g><path d="M837 47h20"></path></g><path d="M857 47h10"></path><g class="comment "><path d="M867 47h0"></path><path d="M982 47h0"></path><text x="924.5" y="52" class="comment">{ action code }</text></g></g><path d="M992 47h0"></path></g><path d="M992 47h20"></path></g><path d="M 1012 47 h 20 m 0 -10 v 20"></path></g><defs><style type="text/css"><![CDATA[
svg.railroad-diagram path { stroke-width: 2; stroke: darkgray; fill: rgba(0, 0, 0, 0);}/* All text except comments. */svg.railroad-diagram text { font: bold 12px Hack, "Source Code Pro", monospace; text-anchor: middle; fill: #404040;}/* Comment text */svg.railroad-diagram text.comment { font: italic 10px Hack, "Source Code Pro", monospace; fill: #404040;}/* The terminal boxes. */svg.railroad-diagram g.terminal rect { stroke-width: 2; stroke: #404040; fill: rgba(200, 200, 200, 1);}svg.railroad-diagram g.non-terminal rect { /* The non-terminal boxes. */ stroke-width: 2; stroke: #404040; fill: rgba(255, 255, 255, 1);}/* Multiple choice text, not working atm. */svg.railroad-diagram text.diagram-text { font-size: 12px Hack, "Source Code Pro", monospace; fill: red;}/* Multiple choice text, not working atm. */svg.railroad-diagram path.diagram-text { stroke-width: 1; stroke: red; fill: red; cursor: help;}
 ]]>
</style></defs></svg>