<?xml version="1.0" encoding="UTF-8" standalone="no"?>
<!DOCTYPE svg PUBLIC "-//W3C//DTD SVG 1.1//EN" "http://www.w3.org/Graphics/SVG/1.1/DTD/svg11.dtd">
<svg class="railroad-diagram" width="2210" height="110" viewBox="0 0 2210 110" id="funDef" xmlns="http://www.w3.org/2000/svg" xmlns:xlink="http://www.w3.org/1999/xlink"><g transform="translate(.5 .5)"><g><path d="M20 53v20m0 -10h20"></path></g><g><path d="M40 63h0"></path><path d="M2170 63h0"></path><path d="M40 63h20"></path><g><path d="M60 63h0"></path><g><path d="M60 63h10"></path><path d="M2140 63h10"></path><g class="terminal "><path d="M70 63h0"></path><path d="M132.5 63h0"></path><rect x="70" y="52" width="62.5" height="22"></rect><text x="101.25" y="67">'fun'</text></g><path d="M132.5 63h10"></path><path d="M142.5 63h10"></path><g class="terminal "><path d="M152.5 63h0"></path><path d="M215 63h0"></path><rect x="152.5" y="52" width="62.5" height="22"></rect><text x="183.75" y="67">IDENT</text></g><path d="M215 63h10"></path><path d="M225 63h10"></path><g class="terminal "><path d="M235 63h0"></path><path d="M280.5 63h0"></path><rect x="235" y="52" width="45.5" height="22"></rect><text x="257.75" y="67">'('</text></g><path d="M280.5 63h10"></path><path d="M290.5 63h10"></path><g class="comment "><path d="M300.5 63h0"></path><path d="M415.5 63h0"></path><text x="358" y="68" class="comment">{ action code }</text></g><path d="M415.5 63h10"></path><g><path d="M425.5 63h0"></path><path d="M1320.5 63h0"></path><path d="M425.5 63a10 10 0 0 0 10 -10v-23a10 10 0 0 1 10 -10"></path><g><path d="M445.5 20h855"></path></g><path d="M1300.5 20a10 10 0 0 1 10 10v23a10 10 0 0 0 10 10"></path><path d="M425.5 63h20"></path><g><path d="M445.5 63h0"></path><path d="M1300.5 63h0"></path><path d="M445.5 63h20"></path><g><path d="M465.5 63h0"></path><g><path d="M465.5 63h10"></path><path d="M1270.5 63h10"></path><g class="non-terminal "><path d="M475.5 63h0"></path><path d="M597.5 63h0"></path><rect x="475.5" y="52" width="122" height="22" rx="10" ry="10"></rect><text x="536.5" y="67">localVarDecl</text></g><path d="M597.5 63h10"></path><path d="M607.5 63h10"></path><g class="comment "><path d="M617.5 63h0"></path><path d="M732.5 63h0"></path><text x="675" y="68" class="comment">{ action code }</text></g><path d="M732.5 63h10"></path><g><path d="M742.5 63h0"></path><path d="M1185 63h0"></path><path d="M742.5 63a10 10 0 0 0 10 -10v-7a10 10 0 0 1 10 -10"></path><g><path d="M762.5 36h402.5"></path></g><path d="M1165 36a10 10 0 0 1 10 10v7a10 10 0 0 0 10 10"></path><path d="M742.5 63h20"></path><g><path d="M762.5 63h0"></path><path d="M1165 63h0"></path><path d="M762.5 63h10"></path><g><path d="M772.5 63h0"></path><path d="M1155 63h0"></path><path d="M772.5 63h20"></path><g><path d="M792.5 63h0"></path><g><path d="M792.5 63h10"></path><path d="M1125 63h10"></path><g class="terminal "><path d="M802.5 63h0"></path><path d="M848 63h0"></path><rect x="802.5" y="52" width="45.5" height="22"></rect><text x="825.25" y="67">','</text></g><path d="M848 63h10"></path><path d="M858 63h10"></path><g class="non-terminal "><path d="M868 63h0"></path><path d="M990 63h0"></path><rect x="868" y="52" width="122" height="22" rx="10" ry="10"></rect><text x="929" y="67">localVarDecl</text></g><path d="M990 63h10"></path><path d="M1000 63h10"></path><g class="comment "><path d="M1010 63h0"></path><path d="M1125 63h0"></path><text x="1067.5" y="68" class="comment">{ action code }</text></g></g><path d="M1135 63h0"></path></g><path d="M1135 63h20"></path></g><path d="M1155 63h10"></path><path d="M772.5 63a10 10 0 0 0 -10 10v7a10 10 0 0 0 10 10"></path><g><path d="M772.5 90h382.5"></path></g><path d="M1155 90a10 10 0 0 0 10 -10v-7a10 10 0 0 0 -10 -10"></path></g><path d="M1165 63h20"></path></g><g><path d="M1185 63h0"></path><path d="M1270.5 63h0"></path><path d="M1185 63a10 10 0 0 0 10 -10v-7a10 10 0 0 1 10 -10"></path><g><path d="M1205 36h45.5"></path></g><path d="M1250.5 36a10 10 0 0 1 10 10v7a10 10 0 0 0 10 10"></path><path d="M1185 63h20"></path><g class="terminal "><path d="M1205 63h0"></path><path d="M1250.5 63h0"></path><rect x="1205" y="52" width="45.5" height="22"></rect><text x="1227.75" y="67">','</text></g><path d="M1250.5 63h20"></path></g></g><path d="M1280.5 63h0"></path></g><path d="M1280.5 63h20"></path></g><path d="M1300.5 63h20"></path></g><path d="M1320.5 63h10"></path><g class="terminal "><path d="M1330.5 63h0"></path><path d="M1376 63h0"></path><rect x="1330.5" y="52" width="45.5" height="22"></rect><text x="1353.25" y="67">')'</text></g><path d="M1376 63h10"></path><path d="M1386 63h10"></path><g class="comment "><path d="M1396 63h0"></path><path d="M1511 63h0"></path><text x="1453.5" y="68" class="comment">{ action code }</text></g><path d="M1511 63h10"></path><g><path d="M1521 63h0"></path><path d="M1875.5 63h0"></path><path d="M1521 63a10 10 0 0 0 10 -10v-7a10 10 0 0 1 10 -10"></path><g><path d="M1541 36h314.5"></path></g><path d="M1855.5 36a10 10 0 0 1 10 10v7a10 10 0 0 0 10 10"></path><path d="M1521 63h20"></path><g><path d="M1541 63h0"></path><path d="M1855.5 63h0"></path><path d="M1541 63h20"></path><g><path d="M1561 63h0"></path><g><path d="M1561 63h10"></path><path d="M1825.5 63h10"></path><g class="terminal "><path d="M1571 63h0"></path><path d="M1616.5 63h0"></path><rect x="1571" y="52" width="45.5" height="22"></rect><text x="1593.75" y="67">':'</text></g><path d="M1616.5 63h10"></path><path d="M1626.5 63h10"></path><g class="non-terminal "><path d="M1636.5 63h0"></path><path d="M1690.5 63h0"></path><rect x="1636.5" y="52" width="54" height="22" rx="10" ry="10"></rect><text x="1663.5" y="67">type</text></g><path d="M1690.5 63h10"></path><path d="M1700.5 63h10"></path><g class="comment "><path d="M1710.5 63h0"></path><path d="M1825.5 63h0"></path><text x="1768" y="68" class="comment">{ action code }</text></g></g><path d="M1835.5 63h0"></path></g><path d="M1835.5 63h20"></path></g><path d="M1855.5 63h20"></path></g><path d="M1875.5 63h10"></path><g class="terminal "><path d="M1885.5 63h0"></path><path d="M1931 63h0"></path><rect x="1885.5" y="52" width="45.5" height="22"></rect><text x="1908.25" y="67">'='</text></g><path d="M1931 63h10"></path><path d="M1941 63h10"></path><g class="non-terminal "><path d="M1951 63h0"></path><path d="M2005 63h0"></path><rect x="1951" y="52" width="54" height="22" rx="10" ry="10"></rect><text x="1978" y="67">expr</text></g><path d="M2005 63h10"></path><path d="M2015 63h10"></path><g class="comment "><path d="M2025 63h0"></path><path d="M2140 63h0"></path><text x="2082.5" y="68" class="comment">{ action code }</text></g></g><path d="M2150 63h0"></path></g><path d="M2150 63h20"></path></g><path d="M 2170 63 h 20 m 0 -10 v 20"></path></g><defs><style type="text/css"><![CDATA[
svg.railroad-diagram path { stroke-width: 2; stroke: darkgray; fill: rgba(0, 0, 0, 0);}/* All text except comments. */svg.railroad-diagram text { font: bold 12px Hack, "Source Code Pro", monospace; text-anchor: middle; fill: #404040;}/* Comment text */svg.railroad-diagram text.comment { font: italic 10px Hack, "Source Code Pro", monospace; fill: #404040;}/* The terminal boxes. */svg.railroad-diagram g.terminal rect { stroke-width: 2; stroke: #404040; fill: rgba(200, 200, 200, 1);}svg.railroad-diagram g.non-terminal rect { /* The non-terminal boxes. */ stroke-width: 2; stroke: #404040; fill: rgba(255, 255, 255, 1);}/* Multiple choice text, not working atm. */svg.railroad-diagram text.diagram-text { font-size: 12px Hack, "Source Code Pro", monospace; fill: red;}/* Multiple choice text, not working atm. */svg.railroad-diagram path.diagram-text { stroke-width: 1; stroke: red; fill: red; cursor: help;}
 ]]>
</style></defs></svg>