<?xml version="1.0" encoding="UTF-8" standalone="no"?>
<!DOCTYPE svg PUBLIC "-//W3C//DTD SVG 1.1//EN" "http://www.w3.org/Graphics/SVG/1.1/DTD/svg11.dtd">
<svg class="railroad-diagram" width="1191" height="78" viewBox="0 0 1191 78" id="ifExpr" xmlns="http://www.w3.org/2000/svg" xmlns:xlink="http://www.w3.org/1999/xlink"><g transform="translate(.5 .5)"><g><path d="M20 37v20m0 -10h20"></path></g><g><path d="M40 47h0"></path><path d="M1151 47h0"></path><path d="M40 47h20"></path><g><path d="M60 47h0"></path><g><path d="M60 47h10"></path><path d="M1121 47h10"></path><g class="terminal "><path d="M70 47h0"></path><path d="M124 47h0"></path><rect x="70" y="36" width="54" height="22"></rect><text x="97" y="51">'if'</text></g><path d="M124 47h10"></path><path d="M134 47h10"></path><g class="non-terminal "><path d="M144 47h0"></path><path d="M232 47h0"></path><rect x="144" y="36" width="88" height="22" rx="10" ry="10"></rect><text x="188" y="51">atomExpr</text></g><path d="M232 47h10"></path><path d="M242 47h10"></path><g class="terminal "><path d="M252 47h0"></path><path d="M323 47h0"></path><rect x="252" y="36" width="71" height="22"></rect><text x="287.5" y="51">'then'</text></g><path d="M323 47h10"></path><path d="M333 47h10"></path><g class="non-terminal "><path d="M343 47h0"></path><path d="M397 47h0"></path><rect x="343" y="36" width="54" height="22" rx="10" ry="10"></rect><text x="370" y="51">expr</text></g><path d="M397 47h10"></path><path d="M407 47h10"></path><g class="comment "><path d="M417 47h0"></path><path d="M532 47h0"></path><text x="474.5" y="52" class="comment">{ action code }</text></g><path d="M532 47h10"></path><g><path d="M542 47h0"></path><path d="M922 47h0"></path><path d="M542 47a10 10 0 0 0 10 -10v-7a10 10 0 0 1 10 -10"></path><g><path d="M562 20h340"></path></g><path d="M902 20a10 10 0 0 1 10 10v7a10 10 0 0 0 10 10"></path><path d="M542 47h20"></path><g><path d="M562 47h0"></path><path d="M902 47h0"></path><path d="M562 47h20"></path><g><path d="M582 47h0"></path><g><path d="M582 47h10"></path><path d="M872 47h10"></path><g class="terminal "><path d="M592 47h0"></path><path d="M663 47h0"></path><rect x="592" y="36" width="71" height="22"></rect><text x="627.5" y="51">'else'</text></g><path d="M663 47h10"></path><path d="M673 47h10"></path><g class="non-terminal "><path d="M683 47h0"></path><path d="M737 47h0"></path><rect x="683" y="36" width="54" height="22" rx="10" ry="10"></rect><text x="710" y="51">expr</text></g><path d="M737 47h10"></path><path d="M747 47h10"></path><g class="comment "><path d="M757 47h0"></path><path d="M872 47h0"></path><text x="814.5" y="52" class="comment">{ action code }</text></g></g><path d="M882 47h0"></path></g><path d="M882 47h20"></path></g><path d="M902 47h20"></path></g><path d="M922 47h10"></path><g class="terminal "><path d="M932 47h0"></path><path d="M986 47h0"></path><rect x="932" y="36" width="54" height="22"></rect><text x="959" y="51">'fi'</text></g><path d="M986 47h10"></path><path d="M996 47h10"></path><g class="comment "><path d="M1006 47h0"></path><path d="M1121 47h0"></path><text x="1063.5" y="52" class="comment">{ action code }</text></g></g><path d="M1131 47h0"></path></g><path d="M1131 47h20"></path></g><path d="M 1151 47 h 20 m 0 -10 v 20"></path></g><defs><style type="text/css"><![CDATA[
svg.railroad-diagram path { stroke-width: 2; stroke: darkgray; fill: rgba(0, 0, 0, 0);}/* All text except comments. */svg.railroad-diagram text { font: bold 12px Hack, "Source Code Pro", monospace; text-anchor: middle; fill: #404040;}/* Comment text */svg.railroad-diagram text.comment { font: italic 10px Hack, "Source Code Pro", monospace; fill: #404040;}/* The terminal boxes. */svg.railroad-diagram g.terminal rect { stroke-width: 2; stroke: #404040; fill: rgba(200, 200, 200, 1);}svg.railroad-diagram g.non-terminal rect { /* The non-terminal boxes. */ stroke-width: 2; stroke: #404040; fill: rgba(255, 255, 255, 1);}/* Multiple choice text, not working atm. */svg.railroad-diagram text.diagram-text { font-size: 12px Hack, "Source Code Pro", monospace; fill: red;}/* Multiple choice text, not working atm. */svg.railroad-diagram path.diagram-text { stroke-width: 1; stroke: red; fill: red; cursor: help;}
 ]]>
</style></defs></svg>