<?xml version="1.0" encoding="UTF-8" standalone="no"?>
<!DOCTYPE svg PUBLIC "-//W3C//DTD SVG 1.1//EN" "http://www.w3.org/Graphics/SVG/1.1/DTD/svg11.dtd">
<svg class="railroad-diagram" width="1273.5" height="94" viewBox="0 0 1273.5 94" id="letInExpr" xmlns="http://www.w3.org/2000/svg" xmlns:xlink="http://www.w3.org/1999/xlink"><g transform="translate(.5 .5)"><g><path d="M20 37v20m0 -10h20"></path></g><g><path d="M40 47h0"></path><path d="M1233.5 47h0"></path><path d="M40 47h20"></path><g><path d="M60 47h0"></path><g><path d="M60 47h10"></path><path d="M1203.5 47h10"></path><g class="terminal "><path d="M70 47h0"></path><path d="M132.5 47h0"></path><rect x="70" y="36" width="62.5" height="22"></rect><text x="101.25" y="51">'let'</text></g><path d="M132.5 47h10"></path><path d="M142.5 47h10"></path><g class="non-terminal "><path d="M152.5 47h0"></path><path d="M266 47h0"></path><rect x="152.5" y="36" width="113.5" height="22" rx="10" ry="10"></rect><text x="209.25" y="51">localVarDef</text></g><path d="M266 47h10"></path><path d="M276 47h10"></path><g class="comment "><path d="M286 47h0"></path><path d="M401 47h0"></path><text x="343.5" y="52" class="comment">{ action code }</text></g><path d="M401 47h10"></path><g><path d="M411 47h0"></path><path d="M845 47h0"></path><path d="M411 47a10 10 0 0 0 10 -10v-7a10 10 0 0 1 10 -10"></path><g><path d="M431 20h394"></path></g><path d="M825 20a10 10 0 0 1 10 10v7a10 10 0 0 0 10 10"></path><path d="M411 47h20"></path><g><path d="M431 47h0"></path><path d="M825 47h0"></path><path d="M431 47h10"></path><g><path d="M441 47h0"></path><path d="M815 47h0"></path><path d="M441 47h20"></path><g><path d="M461 47h0"></path><g><path d="M461 47h10"></path><path d="M785 47h10"></path><g class="terminal "><path d="M471 47h0"></path><path d="M516.5 47h0"></path><rect x="471" y="36" width="45.5" height="22"></rect><text x="493.75" y="51">','</text></g><path d="M516.5 47h10"></path><path d="M526.5 47h10"></path><g class="non-terminal "><path d="M536.5 47h0"></path><path d="M650 47h0"></path><rect x="536.5" y="36" width="113.5" height="22" rx="10" ry="10"></rect><text x="593.25" y="51">localVarDef</text></g><path d="M650 47h10"></path><path d="M660 47h10"></path><g class="comment "><path d="M670 47h0"></path><path d="M785 47h0"></path><text x="727.5" y="52" class="comment">{ action code }</text></g></g><path d="M795 47h0"></path></g><path d="M795 47h20"></path></g><path d="M815 47h10"></path><path d="M441 47a10 10 0 0 0 -10 10v7a10 10 0 0 0 10 10"></path><g><path d="M441 74h374"></path></g><path d="M815 74a10 10 0 0 0 10 -10v-7a10 10 0 0 0 -10 -10"></path></g><path d="M825 47h20"></path></g><g><path d="M845 47h0"></path><path d="M930.5 47h0"></path><path d="M845 47a10 10 0 0 0 10 -10v-7a10 10 0 0 1 10 -10"></path><g><path d="M865 20h45.5"></path></g><path d="M910.5 20a10 10 0 0 1 10 10v7a10 10 0 0 0 10 10"></path><path d="M845 47h20"></path><g class="terminal "><path d="M865 47h0"></path><path d="M910.5 47h0"></path><rect x="865" y="36" width="45.5" height="22"></rect><text x="887.75" y="51">','</text></g><path d="M910.5 47h20"></path></g><path d="M930.5 47h10"></path><g class="terminal "><path d="M940.5 47h0"></path><path d="M994.5 47h0"></path><rect x="940.5" y="36" width="54" height="22"></rect><text x="967.5" y="51">'in'</text></g><path d="M994.5 47h10"></path><path d="M1004.5 47h10"></path><g class="non-terminal "><path d="M1014.5 47h0"></path><path d="M1068.5 47h0"></path><rect x="1014.5" y="36" width="54" height="22" rx="10" ry="10"></rect><text x="1041.5" y="51">expr</text></g><path d="M1068.5 47h10"></path><path d="M1078.5 47h10"></path><g class="comment "><path d="M1088.5 47h0"></path><path d="M1203.5 47h0"></path><text x="1146" y="52" class="comment">{ action code }</text></g></g><path d="M1213.5 47h0"></path></g><path d="M1213.5 47h20"></path></g><path d="M 1233.5 47 h 20 m 0 -10 v 20"></path></g><defs><style type="text/css"><![CDATA[
svg.railroad-diagram path { stroke-width: 2; stroke: darkgray; fill: rgba(0, 0, 0, 0);}/* All text except comments. */svg.railroad-diagram text { font: bold 12px Hack, "Source Code Pro", monospace; text-anchor: middle; fill: #404040;}/* Comment text */svg.railroad-diagram text.comment { font: italic 10px Hack, "Source Code Pro", monospace; fill: #404040;}/* The terminal boxes. */svg.railroad-diagram g.terminal rect { stroke-width: 2; stroke: #404040; fill: rgba(200, 200, 200, 1);}svg.railroad-diagram g.non-terminal rect { /* The non-terminal boxes. */ stroke-width: 2; stroke: #404040; fill: rgba(255, 255, 255, 1);}/* Multiple choice text, not working atm. */svg.railroad-diagram text.diagram-text { font-size: 12px Hack, "Source Code Pro", monospace; fill: red;}/* Multiple choice text, not working atm. */svg.railroad-diagram path.diagram-text { stroke-width: 1; stroke: red; fill: red; cursor: help;}
 ]]>
</style></defs></svg>