<?xml version="1.0" encoding="UTF-8" standalone="no"?>
<!DOCTYPE svg PUBLIC "-//W3C//DTD SVG 1.1//EN" "http://www.w3.org/Graphics/SVG/1.1/DTD/svg11.dtd">
<svg class="railroad-diagram" width="1280" height="224" viewBox="0 0 1280 224" id="type" xmlns="http://www.w3.org/2000/svg" xmlns:xlink="http://www.w3.org/1999/xlink"><g transform="translate(.5 .5)"><g><path d="M20 21v20m0 -10h20"></path></g><g><path d="M40 31h0"></path><path d="M1240 31h0"></path><path d="M40 31h20"></path><g><path d="M60 31h471.25"></path><g><path d="M531.25 31h10"></path><path d="M738.75 31h10"></path><g class="terminal "><path d="M541.25 31h0"></path><path d="M603.75 31h0"></path><rect x="541.25" y="20" width="62.5" height="22"></rect><text x="572.5" y="35">'int'</text></g><path d="M603.75 31h10"></path><path d="M613.75 31h10"></path><g class="comment "><path d="M623.75 31h0"></path><path d="M738.75 31h0"></path><text x="681.25" y="36" class="comment">{ action code }</text></g></g><path d="M748.75 31h471.25"></path></g><path d="M1220 31h20"></path><path d="M40 31a10 10 0 0 1 10 10v18a10 10 0 0 0 10 10"></path><g><path d="M60 69h410"></path><g><path d="M470 69h10"></path><path d="M800 69h10"></path><g class="terminal "><path d="M480 69h0"></path><path d="M525.5 69h0"></path><rect x="480" y="58" width="45.5" height="22"></rect><text x="502.75" y="73">'['</text></g><path d="M525.5 69h10"></path><path d="M535.5 69h10"></path><g class="non-terminal "><path d="M545.5 69h0"></path><path d="M599.5 69h0"></path><rect x="545.5" y="58" width="54" height="22" rx="10" ry="10"></rect><text x="572.5" y="73">type</text></g><path d="M599.5 69h10"></path><path d="M609.5 69h10"></path><g class="terminal "><path d="M619.5 69h0"></path><path d="M665 69h0"></path><rect x="619.5" y="58" width="45.5" height="22"></rect><text x="642.25" y="73">']'</text></g><path d="M665 69h10"></path><path d="M675 69h10"></path><g class="comment "><path d="M685 69h0"></path><path d="M800 69h0"></path><text x="742.5" y="74" class="comment">{ action code }</text></g></g><path d="M810 69h410"></path></g><path d="M1220 69a10 10 0 0 0 10 -10v-18a10 10 0 0 1 10 -10"></path><path d="M40 31a10 10 0 0 1 10 10v88a10 10 0 0 0 10 10"></path><g><path d="M60 139h0"></path><g><path d="M60 139h10"></path><path d="M1210 139h10"></path><g class="terminal "><path d="M70 139h0"></path><path d="M115.5 139h0"></path><rect x="70" y="128" width="45.5" height="22"></rect><text x="92.75" y="143">'('</text></g><path d="M115.5 139h10"></path><path d="M125.5 139h10"></path><g class="comment "><path d="M135.5 139h0"></path><path d="M250.5 139h0"></path><text x="193" y="144" class="comment">{ action code }</text></g><path d="M250.5 139h10"></path><g><path d="M260.5 139h0"></path><path d="M1019.5 139h0"></path><path d="M260.5 139a10 10 0 0 0 10 -10v-23a10 10 0 0 1 10 -10"></path><g><path d="M280.5 96h719"></path></g><path d="M999.5 96a10 10 0 0 1 10 10v23a10 10 0 0 0 10 10"></path><path d="M260.5 139h20"></path><g><path d="M280.5 139h0"></path><path d="M999.5 139h0"></path><path d="M280.5 139h20"></path><g><path d="M300.5 139h0"></path><g><path d="M300.5 139h10"></path><path d="M969.5 139h10"></path><g class="non-terminal "><path d="M310.5 139h0"></path><path d="M364.5 139h0"></path><rect x="310.5" y="128" width="54" height="22" rx="10" ry="10"></rect><text x="337.5" y="143">type</text></g><path d="M364.5 139h10"></path><path d="M374.5 139h10"></path><g class="comment "><path d="M384.5 139h0"></path><path d="M499.5 139h0"></path><text x="442" y="144" class="comment">{ action code }</text></g><path d="M499.5 139h10"></path><g><path d="M509.5 139h0"></path><path d="M884 139h0"></path><path d="M509.5 139a10 10 0 0 0 10 -10v-7a10 10 0 0 1 10 -10"></path><g><path d="M529.5 112h334.5"></path></g><path d="M864 112a10 10 0 0 1 10 10v7a10 10 0 0 0 10 10"></path><path d="M509.5 139h20"></path><g><path d="M529.5 139h0"></path><path d="M864 139h0"></path><path d="M529.5 139h10"></path><g><path d="M539.5 139h0"></path><path d="M854 139h0"></path><path d="M539.5 139h20"></path><g><path d="M559.5 139h0"></path><g><path d="M559.5 139h10"></path><path d="M824 139h10"></path><g class="terminal "><path d="M569.5 139h0"></path><path d="M615 139h0"></path><rect x="569.5" y="128" width="45.5" height="22"></rect><text x="592.25" y="143">','</text></g><path d="M615 139h10"></path><path d="M625 139h10"></path><g class="non-terminal "><path d="M635 139h0"></path><path d="M689 139h0"></path><rect x="635" y="128" width="54" height="22" rx="10" ry="10"></rect><text x="662" y="143">type</text></g><path d="M689 139h10"></path><path d="M699 139h10"></path><g class="comment "><path d="M709 139h0"></path><path d="M824 139h0"></path><text x="766.5" y="144" class="comment">{ action code }</text></g></g><path d="M834 139h0"></path></g><path d="M834 139h20"></path></g><path d="M854 139h10"></path><path d="M539.5 139a10 10 0 0 0 -10 10v7a10 10 0 0 0 10 10"></path><g><path d="M539.5 166h314.5"></path></g><path d="M854 166a10 10 0 0 0 10 -10v-7a10 10 0 0 0 -10 -10"></path></g><path d="M864 139h20"></path></g><g><path d="M884 139h0"></path><path d="M969.5 139h0"></path><path d="M884 139a10 10 0 0 0 10 -10v-7a10 10 0 0 1 10 -10"></path><g><path d="M904 112h45.5"></path></g><path d="M949.5 112a10 10 0 0 1 10 10v7a10 10 0 0 0 10 10"></path><path d="M884 139h20"></path><g class="terminal "><path d="M904 139h0"></path><path d="M949.5 139h0"></path><rect x="904" y="128" width="45.5" height="22"></rect><text x="926.75" y="143">','</text></g><path d="M949.5 139h20"></path></g></g><path d="M979.5 139h0"></path></g><path d="M979.5 139h20"></path></g><path d="M999.5 139h20"></path></g><path d="M1019.5 139h10"></path><g class="terminal "><path d="M1029.5 139h0"></path><path d="M1075 139h0"></path><rect x="1029.5" y="128" width="45.5" height="22"></rect><text x="1052.25" y="143">')'</text></g><path d="M1075 139h10"></path><path d="M1085 139h10"></path><g class="comment "><path d="M1095 139h0"></path><path d="M1210 139h0"></path><text x="1152.5" y="144" class="comment">{ action code }</text></g></g><path d="M1220 139h0"></path></g><path d="M1220 139a10 10 0 0 0 10 -10v-88a10 10 0 0 1 10 -10"></path><path d="M40 31a10 10 0 0 1 10 10v142a10 10 0 0 0 10 10"></path><g><path d="M60 193h401.5"></path><g><path d="M461.5 193h10"></path><path d="M808.5 193h10"></path><g class="non-terminal "><path d="M471.5 193h0"></path><path d="M525.5 193h0"></path><rect x="471.5" y="182" width="54" height="22" rx="10" ry="10"></rect><text x="498.5" y="197">type</text></g><path d="M525.5 193h10"></path><path d="M535.5 193h10"></path><g class="terminal "><path d="M545.5 193h0"></path><path d="M599.5 193h0"></path><rect x="545.5" y="182" width="54" height="22"></rect><text x="572.5" y="197">'-&gt;'</text></g><path d="M599.5 193h10"></path><path d="M609.5 193h10"></path><g class="non-terminal "><path d="M619.5 193h0"></path><path d="M673.5 193h0"></path><rect x="619.5" y="182" width="54" height="22" rx="10" ry="10"></rect><text x="646.5" y="197">type</text></g><path d="M673.5 193h10"></path><path d="M683.5 193h10"></path><g class="comment "><path d="M693.5 193h0"></path><path d="M808.5 193h0"></path><text x="751" y="198" class="comment">{ action code }</text></g></g><path d="M818.5 193h401.5"></path></g><path d="M1220 193a10 10 0 0 0 10 -10v-142a10 10 0 0 1 10 -10"></path></g><path d="M 1240 31 h 20 m 0 -10 v 20"></path></g><defs><style type="text/css"><![CDATA[
svg.railroad-diagram path { stroke-width: 2; stroke: darkgray; fill: rgba(0, 0, 0, 0);}/* All text except comments. */svg.railroad-diagram text { font: bold 12px Hack, "Source Code Pro", monospace; text-anchor: middle; fill: #404040;}/* Comment text */svg.railroad-diagram text.comment { font: italic 10px Hack, "Source Code Pro", monospace; fill: #404040;}/* The terminal boxes. */svg.railroad-diagram g.terminal rect { stroke-width: 2; stroke: #404040; fill: rgba(200, 200, 200, 1);}svg.railroad-diagram g.non-terminal rect { /* The non-terminal boxes. */ stroke-width: 2; stroke: #404040; fill: rgba(255, 255, 255, 1);}/* Multiple choice text, not working atm. */svg.railroad-diagram text.diagram-text { font-size: 12px Hack, "Source Code Pro", monospace; fill: red;}/* Multiple choice text, not working atm. */svg.railroad-diagram path.diagram-text { stroke-width: 1; stroke: red; fill: red; cursor: help;}
 ]]>
</style></defs></svg>